<svg width="101" height="173" viewBox="0 0 101 173" fill="none" xmlns="http://www.w3.org/2000/svg">
<path d="M95.0621 169.337L91.6334 169.337L90.002 154.923L95.0626 154.923L95.0621 169.337Z" fill="#FFB6B6"/>
<path d="M95.936 172.96L84.8799 172.959V172.807C84.88 171.563 85.3334 170.37 86.1404 169.49C86.9474 168.611 88.0419 168.117 89.1832 168.117L95.9362 168.117L95.936 172.96Z" fill="#2F2E41"/>
<path d="M63.4576 169.337L60.0286 169.337L58.3975 154.923L63.4581 154.923L63.4576 169.337Z" fill="#FFB6B6"/>
<path d="M64.3315 172.96L53.2754 172.959V172.807C53.2755 171.563 53.7289 170.37 54.5359 169.49C55.3429 168.611 56.4375 168.117 57.5788 168.117L64.3317 168.117L64.3315 172.96Z" fill="#2F2E41"/>
<path d="M27.5468 62.0422C42.7023 62.0422 54.9882 48.6522 54.9882 32.1348C54.9882 15.6175 42.7023 2.22754 27.5468 2.22754C12.3914 2.22754 0.105469 15.6175 0.105469 32.1348C0.105469 48.6522 12.3914 62.0422 27.5468 62.0422Z" fill="#E4E4E4"/>
<path d="M27.5465 57.0574C40.1761 57.0574 50.4143 45.8991 50.4143 32.1347C50.4143 18.3702 40.1761 7.21191 27.5465 7.21191C14.917 7.21191 4.67871 18.3702 4.67871 32.1347C4.67871 45.8991 14.917 57.0574 27.5465 57.0574Z" fill="#7451AF"/>
<path d="M25.6043 41.1474C25.5634 41.1474 25.5225 41.1463 25.4815 41.1442C25.1198 41.1252 24.7662 41.0211 24.4449 40.8392C24.1236 40.6572 23.8422 40.4017 23.62 40.0901L20.1122 35.1748C19.7038 34.6011 19.5208 33.8743 19.6034 33.1538C19.686 32.4332 20.0275 31.7778 20.5529 31.3314L20.6791 31.2243C21.2055 30.7792 21.8724 30.5798 22.5336 30.6698C23.1947 30.7598 23.7961 31.132 24.2059 31.7046C24.4036 31.9816 24.6538 32.2089 24.9396 32.3707C25.2253 32.5325 25.5398 32.6252 25.8615 32.6423C26.1831 32.6594 26.5044 32.6005 26.8032 32.4697C27.102 32.3389 27.3714 32.1393 27.5929 31.8846L34.7156 23.6902C34.9425 23.4291 35.2145 23.2193 35.5159 23.0727C35.8173 22.9261 36.1422 22.8457 36.4721 22.836C36.802 22.8263 37.1305 22.8875 37.4387 23.0161C37.7469 23.1447 38.0288 23.3383 38.2684 23.5857L38.3847 23.7058C38.8685 24.2053 39.1504 24.8939 39.1684 25.62C39.1864 26.3461 38.939 27.0503 38.4806 27.5776L27.4281 40.2921C27.1934 40.5623 26.9107 40.7776 26.5971 40.9246C26.2835 41.0717 25.9457 41.1475 25.6043 41.1474Z" fill="white"/>
<path d="M88.3745 26.0794H70.3125V8.9596C70.3311 7.89957 70.7346 6.89082 71.4345 6.15449C72.1344 5.41816 73.0737 5.01434 74.0463 5.03153H80.0502C84.6402 5.03153 88.3745 8.96002 88.3745 13.7888V26.0794Z" fill="#2F2E41"/>
<path d="M67.5978 53.5371L65.3604 69.0829L86.6162 69.3875L83.8194 54.4517L67.5978 53.5371Z" fill="#FFB6B6"/>
<path d="M65.9772 65.2869L59.2072 84.9332L58.3682 166.351H64.1017L77.8062 100.936L90.392 164.643H95.9857L92.0701 93.0108C92.0701 93.0108 93.2248 78.6334 87.3155 70.1495L85.8771 65.6205L65.9772 65.2869Z" fill="#2F2E41"/>
<path d="M95.0162 80.6021C94.4243 80.4263 93.8751 80.1113 93.407 79.6791C92.939 79.2469 92.5636 78.7082 92.3073 78.1008C92.051 77.4934 91.92 76.8322 91.9235 76.1636C91.9271 75.4951 92.0651 74.8355 92.3278 74.2314L83.2852 42.101L89.9364 40.6641L98.2067 72.1586C99.1087 72.7069 99.7948 73.5967 100.135 74.6595C100.475 75.7222 100.446 76.8841 100.053 77.9248C99.6593 78.9656 98.9294 79.813 98.0011 80.3064C97.0729 80.7999 96.0108 80.9051 95.0162 80.6021Z" fill="#FFB6B6"/>
<path d="M83.049 62.1225L68.3967 61.8142C67.9779 61.8045 67.5735 61.6455 67.2456 61.3614C66.9177 61.0774 66.6842 60.684 66.581 60.2416C65.7955 56.8521 64.0673 48.0188 64.984 39.2208C65.1649 37.5165 65.6576 35.869 66.433 34.3758C67.2084 32.8826 68.2507 31.5741 69.4982 30.5277C70.7458 29.4812 72.1732 28.7181 73.6961 28.2835C75.2191 27.8489 76.8065 27.7515 78.3645 27.9973C80.0081 28.2537 81.5833 28.886 82.9868 29.8526C84.3904 30.8192 85.5906 32.0984 86.5086 33.6061C87.4267 35.1138 88.0419 36.816 88.3139 38.601C88.5859 40.3861 88.5085 42.2137 88.0868 43.9638C86.2424 51.5974 85.2006 57.0585 84.9904 60.1959C84.9592 60.6496 84.7927 61.0796 84.5163 61.4204C84.2398 61.7612 83.8686 61.994 83.4593 62.0832C83.3376 62.1096 83.2138 62.1229 83.0897 62.123C83.0761 62.123 83.0626 62.1228 83.049 62.1225Z" fill="#E4E4E4"/>
<path d="M38.5415 33.8995C38.6295 34.1146 38.7018 34.337 38.7578 34.5645L57.0983 41.3569L60.6422 37.9826L66.0137 43.1461L60.2725 49.784C59.8087 50.3202 59.1978 50.678 58.5315 50.8037C57.8652 50.9293 57.1795 50.816 56.5773 50.4808L36.9518 39.5553C36.2421 40.0297 35.4167 40.2575 34.5853 40.2082C33.754 40.1589 32.9561 39.8349 32.2978 39.2793C31.6395 38.7238 31.152 37.9629 30.9001 37.098C30.6482 36.2331 30.644 35.3051 30.8878 34.4375C31.1317 33.5699 31.6121 32.8038 32.2653 32.241C32.9184 31.6782 33.7133 31.3455 34.5441 31.2871C35.375 31.2287 36.2025 31.4474 36.9166 31.914C37.6306 32.3807 38.1974 33.0732 38.5415 33.8995Z" fill="#FFB6B6"/>
<path d="M57.1377 40.2735C57.1392 39.9982 57.1951 39.7265 57.3016 39.4769C57.4082 39.2274 57.5629 39.0058 57.7552 38.8273L64.4707 32.5929C65.3205 31.5315 66.5219 30.8808 67.8113 30.7835C69.1008 30.6861 70.373 31.1501 71.3489 32.0737C72.3249 32.9972 72.925 34.305 73.0175 35.71C73.11 37.1151 72.6874 38.5028 71.8424 39.5687L67.0601 47.6848C66.9236 47.9164 66.7429 48.1132 66.5303 48.2619C66.3177 48.4105 66.0783 48.5075 65.8282 48.5462C65.5781 48.5848 65.3233 48.5643 65.0812 48.486C64.839 48.4077 64.6152 48.2734 64.425 48.0924L57.7391 41.728C57.5487 41.547 57.3965 41.3233 57.2927 41.0723C57.1889 40.8213 57.1361 40.5488 57.1377 40.2735Z" fill="#E4E4E4"/>
<path d="M82.8797 50.2401C82.6562 50.112 82.4606 49.9328 82.3064 49.7148C82.1522 49.4968 82.043 49.2451 81.9862 48.9769L80.0007 39.6092C79.5277 38.2984 79.5511 36.8367 80.0656 35.5446C80.5801 34.2525 81.5438 33.2355 82.7453 32.7167C83.9468 32.1978 85.288 32.2194 86.4749 32.7767C87.6618 33.334 88.5975 34.3816 89.0767 35.6897L93.485 44.0535C93.6108 44.2922 93.688 44.5576 93.7111 44.8317C93.7343 45.1058 93.703 45.3822 93.6194 45.6419C93.5357 45.9017 93.4017 46.1387 93.2264 46.3369C93.0511 46.5351 92.8387 46.6898 92.6036 46.7905L84.3412 50.3281C84.1062 50.4289 83.8539 50.4732 83.6017 50.458C83.3494 50.4428 83.1032 50.3685 82.8797 50.2401Z" fill="#E4E4E4"/>
<path d="M89.9878 6.70427C90.6662 4.97334 89.4995 2.77096 87.3819 1.78511C85.2643 0.79925 82.9977 1.40324 82.3192 3.13418C81.6408 4.86511 82.8075 7.0675 84.9251 8.05336C87.0427 9.03922 89.3094 8.43521 89.9878 6.70427Z" fill="#2F2E41"/>
<path d="M83.4186 19.5704C85.684 15.0538 84.1609 9.39099 80.0168 6.92204C75.8727 4.45309 70.6768 6.11297 68.4114 10.6295C66.146 15.146 67.669 20.8089 71.8132 23.2778C75.9573 25.7468 81.1532 24.0869 83.4186 19.5704Z" fill="#FFB6B6"/>
<path d="M80.6067 4.42555H70.8253C70.1082 4.41544 69.4141 4.70117 68.8822 5.22545C68.3503 5.74973 68.0199 6.47379 67.9573 7.25242C67.932 7.66619 67.985 8.08122 68.1129 8.47178C68.2407 8.86235 68.4409 9.22013 68.7008 9.52296C68.9608 9.82578 69.275 10.0672 69.6241 10.2323C69.9731 10.3973 70.3496 10.4825 70.7301 10.4825C71.4671 10.4825 72.1738 10.8016 72.695 11.3695C73.2161 11.9375 73.5088 12.7078 73.5088 13.511V25.9277H88.7921V13.3464C88.7921 12.1749 88.5803 11.0149 88.169 9.93255C87.7576 8.85022 87.1547 7.86679 86.3946 7.03841C85.6346 6.21003 84.7322 5.55293 83.7391 5.10461C82.746 4.6563 81.6816 4.42555 80.6067 4.42555Z" fill="#2F2E41"/>
</svg>
